<svg width="233" height="235" viewBox="0 0 233 235" fill="none" xmlns="http://www.w3.org/2000/svg">
<g clip-path="url(#clip0_2502_59032)">
<path d="M12.6211 186.252L13.6278 125.492L66.7505 95.9844L118.867 127.236L117.86 187.996L64.7372 217.504L12.6211 186.252Z" stroke="#E3E4EB" stroke-width="3"/>
<path d="M67.1365 94.4671L66.1012 156.959L11.4644 187.308" stroke="#E3E4EB" stroke-width="3"/>
<path d="M120.023 126.181L65.3864 156.53L64.351 219.021" stroke="#E3E4EB" stroke-width="3"/>
<line x1="14.2719" y1="125.101" x2="118.259" y2="187.457" stroke="#E3E4EB" stroke-width="3"/>
<path d="M116.621 187.252L117.628 126.492L170.75 96.9844L222.867 128.236L221.86 188.996L168.737 218.504L116.621 187.252Z" stroke="#E3E4EB" stroke-width="3"/>
<path d="M171.137 95.4671L170.101 157.959L115.464 188.308" stroke="#E3E4EB" stroke-width="3"/>
<path d="M224.023 127.181L169.386 157.53L168.351 220.021" stroke="#E3E4EB" stroke-width="3"/>
<line x1="118.272" y1="126.101" x2="222.259" y2="188.457" stroke="#E3E4EB" stroke-width="3"/>
<path d="M66.6211 96.252L67.6278 35.4924L120.75 5.98437L172.867 37.236L171.86 97.9956L118.737 127.504L66.6211 96.252Z" stroke="#E3E4EB" stroke-width="3"/>
<path d="M121.137 4.46712L120.101 66.9585L65.4644 97.3076" stroke="#E3E4EB" stroke-width="3"/>
<path d="M174.023 36.1809L119.386 66.5299L118.351 129.021" stroke="#E3E4EB" stroke-width="3"/>
<line x1="68.2719" y1="35.1013" x2="172.259" y2="97.4574" stroke="#E3E4EB" stroke-width="3"/>
</g>
<defs>
<clipPath id="clip0_2502_59032">
<rect width="233" height="235" fill="white"/>
</clipPath>
</defs>
</svg>
