<svg width="512" height="512" viewBox="0 0 512 512" fill="none" xmlns="http://www.w3.org/2000/svg">
<path d="M480.36 494.742H465.978V43.146C465.978 38.379 462.114 34.517 457.349 34.517H296.27C291.504 34.517 287.641 38.379 287.641 43.146V80.539H270.383V43.146C270.383 38.379 266.519 34.517 261.754 34.517H224.36V8.629C224.36 3.862 220.496 0 215.731 0C210.966 0 207.102 3.862 207.102 8.629V34.517H169.709C164.943 34.517 161.08 38.379 161.08 43.146V80.539H135.192C130.426 80.539 126.563 84.401 126.563 89.168V161.078H54.653C49.887 161.078 46.024 164.94 46.024 169.707V494.741H31.64C26.874 494.741 23.011 498.603 23.011 503.37C23.011 508.137 26.875 512 31.64 512H480.36C485.126 512 488.989 508.138 488.989 503.371C488.989 498.604 485.125 494.742 480.36 494.742ZM178.337 51.775H253.123V80.539H178.337V51.775ZM149.573 494.742H143.82C139 494.742 139.265 494.742 134.5 494.742C129.735 494.742 134.5 494.742 129.742 494.742H126.562H120.809V465.978H149.573V494.742ZM207.101 273.258V288.103V494.742H166.831V457.349C166.831 452.582 162.967 448.72 158.202 448.72H112.18C107.414 448.72 103.551 452.582 103.551 457.349V494.742H63.281V178.337H207.101V273.258ZM215.73 161.079H143.82V97.798H287.64V264.629H224.36V235.865H250.248C255.014 235.865 258.877 232.003 258.877 227.236C258.877 222.469 255.013 218.607 250.248 218.607H224.36V189.843H250.248C255.014 189.843 258.877 185.981 258.877 181.214C258.877 176.447 255.013 172.585 250.248 172.585H224.36V169.709C224.36 164.941 220.496 161.079 215.73 161.079ZM368.18 494.742H224.36V288.103V281.888H368.18V494.742ZM448.719 494.742H385.438V273.258V261.752C385.438 256.985 381.574 253.123 376.809 253.123C372.044 253.123 368.18 256.985 368.18 261.752V264.628H350.922V261.752C350.922 256.985 347.058 253.123 342.293 253.123C337.528 253.123 333.664 256.985 333.664 261.752V264.628H304.9V89.169V51.775H448.72V494.742H448.719Z" fill="#E3E4EB"/>
<path d="M261.753 477.485C266.519 477.485 270.382 473.621 270.382 468.856V307.778C270.382 303.011 266.518 299.149 261.753 299.149C256.988 299.149 253.124 303.011 253.124 307.778V468.857C253.124 473.622 256.987 477.485 261.753 477.485Z" fill="#E3E4EB"/>
<path d="M296.27 477.485C301.036 477.485 304.899 473.621 304.899 468.856V307.778C304.899 303.011 301.035 299.149 296.27 299.149C291.505 299.149 287.641 303.011 287.641 307.778V468.857C287.64 473.622 291.504 477.485 296.27 477.485Z" fill="#E3E4EB"/>
<path d="M330.786 477.485C335.552 477.485 339.415 473.621 339.415 468.856V307.778C339.415 303.011 335.551 299.149 330.786 299.149C326.021 299.149 322.157 303.011 322.157 307.778V468.857C322.157 473.622 326.021 477.485 330.786 477.485Z" fill="#E3E4EB"/>
<path d="M342.292 109.303C347.058 109.303 350.921 105.441 350.921 100.674V89.169C350.921 84.402 347.057 80.54 342.292 80.54C337.527 80.54 333.663 84.402 333.663 89.169V100.675C333.663 105.441 337.526 109.303 342.292 109.303Z" fill="#E3E4EB"/>
<path d="M376.809 109.303C381.575 109.303 385.438 105.441 385.438 100.674V89.169C385.438 84.402 381.574 80.54 376.809 80.54C372.044 80.54 368.18 84.402 368.18 89.169V100.675C368.18 105.441 372.043 109.303 376.809 109.303Z" fill="#E3E4EB"/>
<path d="M411.326 109.303C416.092 109.303 419.955 105.441 419.955 100.674V89.169C419.955 84.402 416.091 80.54 411.326 80.54C406.561 80.54 402.697 84.402 402.697 89.169V100.675C402.697 105.441 406.56 109.303 411.326 109.303Z" fill="#E3E4EB"/>
<path d="M342.292 166.831C347.058 166.831 350.921 162.969 350.921 158.202V146.696C350.921 141.929 347.057 138.067 342.292 138.067C337.527 138.067 333.663 141.929 333.663 146.696V158.202C333.663 162.969 337.526 166.831 342.292 166.831Z" fill="#E3E4EB"/>
<path d="M376.809 166.831C381.575 166.831 385.438 162.969 385.438 158.202V146.696C385.438 141.929 381.574 138.067 376.809 138.067C372.044 138.067 368.18 141.929 368.18 146.696V158.202C368.18 162.969 372.043 166.831 376.809 166.831Z" fill="#E3E4EB"/>
<path d="M411.326 166.831C416.092 166.831 419.955 162.969 419.955 158.202V146.696C419.955 141.929 416.091 138.067 411.326 138.067C406.561 138.067 402.697 141.929 402.697 146.696V158.202C402.697 162.969 406.56 166.831 411.326 166.831Z" fill="#E3E4EB"/>
<path d="M342.292 224.36C347.058 224.36 350.921 220.498 350.921 215.731V204.225C350.921 199.458 347.057 195.596 342.292 195.596C337.527 195.596 333.663 199.458 333.663 204.225V215.731C333.663 220.497 337.526 224.36 342.292 224.36Z" fill="#E3E4EB"/>
<path d="M376.809 224.36C381.575 224.36 385.438 220.498 385.438 215.731V204.225C385.438 199.458 381.574 195.596 376.809 195.596C372.044 195.596 368.18 199.458 368.18 204.225V215.731C368.18 220.497 372.043 224.36 376.809 224.36Z" fill="#E3E4EB"/>
<path d="M411.326 224.36C416.092 224.36 419.955 220.498 419.955 215.731V204.225C419.955 199.458 416.091 195.596 411.326 195.596C406.561 195.596 402.697 199.458 402.697 204.225V215.731C402.697 220.497 406.56 224.36 411.326 224.36Z" fill="#E3E4EB"/>
<path d="M100.674 247.371C105.44 247.371 109.303 243.509 109.303 238.742V227.236C109.303 222.469 105.439 218.607 100.674 218.607C95.909 218.607 92.045 222.469 92.045 227.236V238.742C92.045 243.508 95.909 247.371 100.674 247.371Z" fill="#E3E4EB"/>
<path d="M135.191 247.371C139.957 247.371 143.82 243.509 143.82 238.742V227.236C143.82 222.469 139.956 218.607 135.191 218.607C130.426 218.607 126.562 222.469 126.562 227.236V238.742C126.562 243.508 130.425 247.371 135.191 247.371Z" fill="#E3E4EB"/>
<path d="M169.708 247.371C174.474 247.371 178.337 243.509 178.337 238.742V227.236C178.337 222.469 174.473 218.607 169.708 218.607C164.943 218.607 161.079 222.469 161.079 227.236V238.742C161.079 243.508 164.942 247.371 169.708 247.371Z" fill="#E3E4EB"/>
<path d="M100.674 304.899C105.44 304.899 109.303 301.037 109.303 296.27V284.764C109.303 279.997 105.439 276.135 100.674 276.135C95.909 276.135 92.045 279.997 92.045 284.764V296.27C92.045 301.036 95.909 304.899 100.674 304.899Z" fill="#E3E4EB"/>
<path d="M135.191 304.899C139.957 304.899 143.82 301.037 143.82 296.27V284.764C143.82 279.997 139.956 276.135 135.191 276.135C130.426 276.135 126.562 279.997 126.562 284.764V296.27C126.562 301.036 130.425 304.899 135.191 304.899Z" fill="#E3E4EB"/>
<path d="M169.708 304.899C174.474 304.899 178.337 301.037 178.337 296.27V284.764C178.337 279.997 174.473 276.135 169.708 276.135C164.943 276.135 161.079 279.997 161.079 284.764V296.27C161.079 301.036 164.942 304.899 169.708 304.899Z" fill="#E3E4EB"/>
<path d="M100.674 362.427C105.44 362.427 109.303 358.565 109.303 353.798V342.292C109.303 337.525 105.439 333.663 100.674 333.663C95.909 333.663 92.045 337.525 92.045 342.292V353.798C92.045 358.565 95.909 362.427 100.674 362.427Z" fill="#E3E4EB"/>
<path d="M135.191 362.427C139.957 362.427 143.82 358.565 143.82 353.798V342.292C143.82 337.525 139.956 333.663 135.191 333.663C130.426 333.663 126.562 337.525 126.562 342.292V353.798C126.562 358.565 130.425 362.427 135.191 362.427Z" fill="#E3E4EB"/>
<path d="M169.708 362.427C174.474 362.427 178.337 358.565 178.337 353.798V342.292C178.337 337.525 174.473 333.663 169.708 333.663C164.943 333.663 161.079 337.525 161.079 342.292V353.798C161.079 358.565 164.942 362.427 169.708 362.427Z" fill="#E3E4EB"/>
<path d="M100.674 419.955C105.44 419.955 109.303 416.093 109.303 411.326V399.82C109.303 395.053 105.439 391.191 100.674 391.191C95.909 391.191 92.045 395.053 92.045 399.82V411.326C92.045 416.093 95.909 419.955 100.674 419.955Z" fill="#E3E4EB"/>
<path d="M135.191 419.955C139.957 419.955 143.82 416.093 143.82 411.326V399.82C143.82 395.053 139.956 391.191 135.191 391.191C130.426 391.191 126.562 395.053 126.562 399.82V411.326C126.562 416.093 130.425 419.955 135.191 419.955Z" fill="#E3E4EB"/>
<path d="M169.708 419.955C174.474 419.955 178.337 416.093 178.337 411.326V399.82C178.337 395.053 174.473 391.191 169.708 391.191C164.943 391.191 161.079 395.053 161.079 399.82V411.326C161.079 416.093 164.942 419.955 169.708 419.955Z" fill="#E3E4EB"/>
<path d="M411.326 281.888C416.092 281.888 419.955 278.026 419.955 273.259V261.753C419.955 256.986 416.091 253.124 411.326 253.124C406.561 253.124 402.697 256.986 402.697 261.753V273.259C402.697 278.025 406.56 281.888 411.326 281.888Z" fill="#E3E4EB"/>
<path d="M411.326 339.416C416.092 339.416 419.955 335.554 419.955 330.787V319.281C419.955 314.514 416.091 310.652 411.326 310.652C406.561 310.652 402.697 314.514 402.697 319.281V330.787C402.697 335.553 406.56 339.416 411.326 339.416Z" fill="#E3E4EB"/>
<path d="M411.326 396.944C416.092 396.944 419.955 393.082 419.955 388.315V376.809C419.955 372.042 416.091 368.18 411.326 368.18C406.561 368.18 402.697 372.042 402.697 376.809V388.315C402.697 393.081 406.56 396.944 411.326 396.944Z" fill="#E3E4EB"/>
<path d="M411.326 454.472C416.092 454.472 419.955 450.61 419.955 445.843V434.337C419.955 429.57 416.091 425.708 411.326 425.708C406.561 425.708 402.697 429.57 402.697 434.337V445.843C402.697 450.609 406.56 454.472 411.326 454.472Z" fill="#E3E4EB"/>
<path d="M258.876 135.191C258.876 130.424 255.012 126.562 250.247 126.562H181.213C176.447 126.562 172.584 130.424 172.584 135.191C172.584 139.958 176.448 143.82 181.213 143.82H250.247C255.013 143.82 258.876 139.958 258.876 135.191Z" fill="#E3E4EB"/>
</svg>
