<svg width="202" height="215" viewBox="0 0 202 215" fill="none" xmlns="http://www.w3.org/2000/svg">
<path d="M16 56.5L46.524 45.4019L74.5541 60.3874M16 56.5L17.524 91.4019L49.6454 108.781M16 56.5L75.4978 91.8739M20.524 126.213L49.0254 139.5M20.524 126.213L17.7587 157.552L47.0392 174.308M20.524 126.213L49.6454 108.781M49.0254 139.5L47.0392 174.308M49.0254 139.5L102.338 107.832M47.0392 174.308L75.297 158.211M188.524 58.25L187.009 93.4962L158.544 109.102M188.524 58.25L160.494 45.4019M188.524 58.25L130.598 91.5741M160.494 45.4019C130.796 62.5481 130.796 62.5481 130.796 62.5481M160.494 45.4019L130.796 62.5481M186.494 126.213L188.5 158L157.494 172.213M186.494 126.213L156.024 139.75M186.494 126.213L158.544 109.102M157.494 172.213L156.024 139.75M157.494 172.213L129.862 157.526M156.024 139.75L75.4978 91.8739M156.024 139.75L102.338 107.832M131.024 29L102.024 10L74.024 28M131.024 29L102.524 48M131.024 29L130.796 62.5481M102.524 48L74.024 28M102.524 48L102.23 142.838M102.524 48L102.338 107.832M74.024 28L74.5541 60.3874M102.024 209L131.024 190.623L129.862 157.526M102.024 209L74.024 189.623L75.297 158.211M102.024 209L102.23 142.838M130.796 62.5481L130.598 91.5741M75.4978 91.8739L49.6454 108.781M75.4978 91.8739L74.5541 60.3874M75.4978 91.8739L102.338 107.832M102.23 142.838L75.297 158.211M102.23 142.838L129.862 157.526M102.23 142.838L102.338 107.832M158.544 109.102L130.595 91.9903L130.598 91.5741M102.338 107.832L130.598 91.5741" stroke="#E3E4EB" stroke-width="3"/>
</svg>
