<svg width="262" height="249" viewBox="0 0 262 249" fill="none" xmlns="http://www.w3.org/2000/svg">
<g clip-path="url(#clip0_2501_58156)">
<path d="M130.49 120.524L130.689 158.285" stroke="#E3E4EB" stroke-width="3"/>
<path d="M161.889 177.249L130.616 158.417" stroke="#E3E4EB" stroke-width="3"/>
<path d="M99.0918 177.249L130.689 158.285" stroke="#E3E4EB" stroke-width="3"/>
<path d="M70.2082 120.018L130.636 10.8493C130.826 10.5054 131.303 10.4986 131.49 10.8372L191.918 120.006C192.105 120.344 191.861 120.771 191.48 120.771L70.6254 120.771C70.2507 120.771 70.0209 120.356 70.2082 120.018Z" stroke="#E3E4EB" stroke-width="3"/>
<path d="M162.478 64.9554L131.225 84.0155" stroke="#E3E4EB" stroke-width="3"/>
<path d="M131.517 10.8877L191.943 120.053C192.127 120.386 191.886 120.795 191.505 120.795H70.6542C70.2733 120.795 70.0323 120.386 70.2168 120.053L130.642 10.8877C130.833 10.5438 131.327 10.5439 131.517 10.8877Z" stroke="#E3E4EB" stroke-width="3"/>
<path d="M131.08 121.68L131.08 84.0146" stroke="#E3E4EB" stroke-width="3"/>
<path d="M191.534 120.771L70.6792 120.771C70.2984 120.771 70.0545 120.344 70.2418 120.006L130.669 10.837C130.857 10.4985 131.333 10.5052 131.524 10.8491L191.951 120.018C192.139 120.356 191.909 120.771 191.534 120.771Z" stroke="#E3E4EB" stroke-width="3"/>
<path d="M99.6812 64.9545L131.225 84.0146" stroke="#E3E4EB" stroke-width="3"/>
<path d="M7.85643 231.787L68.2839 122.619C68.4743 122.275 68.951 122.268 69.1384 122.607L129.566 231.775C129.753 232.114 129.509 232.541 129.129 232.541L8.2736 232.541C7.89888 232.541 7.66908 232.126 7.85643 231.787Z" stroke="#E3E4EB" stroke-width="3"/>
<path d="M100.127 176.725L68.8733 195.785" stroke="#E3E4EB" stroke-width="3"/>
<path d="M69.1651 122.657L129.591 231.822C129.775 232.155 129.534 232.564 129.153 232.564H8.30218C7.92128 232.564 7.68026 232.155 7.86472 231.822L68.2902 122.657C68.4805 122.313 68.9748 122.313 69.1651 122.657Z" stroke="#E3E4EB" stroke-width="3"/>
<path d="M68.7278 233.449L68.7278 195.784" stroke="#E3E4EB" stroke-width="3"/>
<path d="M129.182 232.541L8.3271 232.541C7.94637 232.541 7.70241 232.114 7.88979 231.775L68.3173 122.607C68.5047 122.268 68.9814 122.275 69.1717 122.619L129.599 231.787C129.787 232.126 129.557 232.541 129.182 232.541Z" stroke="#E3E4EB" stroke-width="3"/>
<path d="M37.3291 176.724L68.8733 195.784" stroke="#E3E4EB" stroke-width="3"/>
<path d="M131.856 231.787L192.284 122.619C192.474 122.275 192.951 122.268 193.138 122.607L253.566 231.775C253.753 232.114 253.509 232.541 253.129 232.541L132.274 232.541C131.899 232.541 131.669 232.126 131.856 231.787Z" stroke="#E3E4EB" stroke-width="3"/>
<path d="M224.127 176.725L192.873 195.785" stroke="#E3E4EB" stroke-width="3"/>
<path d="M193.165 122.657L253.591 231.822C253.775 232.155 253.534 232.564 253.153 232.564H132.302C131.921 232.564 131.68 232.155 131.865 231.822L192.29 122.657C192.481 122.313 192.975 122.313 193.165 122.657Z" stroke="#E3E4EB" stroke-width="3"/>
<path d="M192.728 233.449L192.728 195.784" stroke="#E3E4EB" stroke-width="3"/>
<path d="M253.182 232.541L132.327 232.541C131.946 232.541 131.702 232.114 131.89 231.775L192.317 122.607C192.505 122.268 192.981 122.275 193.172 122.619L253.599 231.787C253.787 232.126 253.557 232.541 253.182 232.541Z" stroke="#E3E4EB" stroke-width="3"/>
<path d="M161.329 176.724L192.873 195.784" stroke="#E3E4EB" stroke-width="3"/>
</g>
<defs>
<clipPath id="clip0_2501_58156">
<rect width="262" height="249" fill="white"/>
</clipPath>
</defs>
</svg>
