<svg width="240" height="225" viewBox="0 0 240 225" fill="none" xmlns="http://www.w3.org/2000/svg">
<g clip-path="url(#clip0_2501_58409)">
<path d="M121.516 15.4111L121.69 48.4521" stroke="#E3E4EB" stroke-width="3"/>
<path d="M148.99 65.0448L121.626 48.5664" stroke="#E3E4EB" stroke-width="3"/>
<path d="M172.38 17.1798L119.93 111.937C119.742 112.276 119.274 112.273 119.085 111.931L66.6347 17.1738C66.4459 16.8326 66.6771 16.4081 67.0519 16.4081L171.953 16.4081C172.331 16.4081 172.569 16.8386 172.38 17.1798Z" stroke="#E3E4EB" stroke-width="3"/>
<path d="M94.0419 65.0455L121.69 48.4521" stroke="#E3E4EB" stroke-width="3"/>
<path d="M174.68 110.41L174.854 143.451" stroke="#E3E4EB" stroke-width="3"/>
<path d="M122.871 112.396L224.38 112.396C225.522 112.396 226.254 113.678 225.692 114.693L174.937 206.387C174.375 207.402 172.945 207.382 172.374 206.35L121.619 114.657C121.057 113.641 121.747 112.396 122.871 112.396Z" stroke="#E3E4EB" stroke-width="3"/>
<path d="M202.153 160.045L174.789 143.566" stroke="#E3E4EB" stroke-width="3"/>
<path d="M147.204 160.044L174.852 143.45" stroke="#E3E4EB" stroke-width="3"/>
<path d="M120.301 111.807L172.751 17.0501C172.941 16.7062 173.418 16.6994 173.606 17.0379L226.056 111.795C226.243 112.133 225.999 112.56 225.618 112.56L120.718 112.56C120.343 112.56 120.114 112.145 120.301 111.807Z" stroke="#E3E4EB" stroke-width="3"/>
<path d="M201.669 63.9111L174.322 80.5887" stroke="#E3E4EB" stroke-width="3"/>
<path d="M174.195 113.547L174.195 80.5898" stroke="#E3E4EB" stroke-width="3"/>
<path d="M146.722 63.9113L174.323 80.5889" stroke="#E3E4EB" stroke-width="3"/>
<path d="M67.1061 207.807L119.556 113.05C119.747 112.706 120.223 112.699 120.411 113.038L172.861 207.795C173.048 208.133 172.804 208.56 172.424 208.56L67.5232 208.56C67.1485 208.56 66.9187 208.145 67.1061 207.807Z" stroke="#E3E4EB" stroke-width="3"/>
<path d="M147.474 159.911L120.127 176.589" stroke="#E3E4EB" stroke-width="3"/>
<path d="M120 209.546L120 176.589" stroke="#E3E4EB" stroke-width="3"/>
<path d="M92.5266 159.911L120.128 176.589" stroke="#E3E4EB" stroke-width="3"/>
<path d="M66.321 113.547L66.321 80.5898" stroke="#E3E4EB" stroke-width="3"/>
<path d="M93.7951 63.9121L66.4485 80.5897" stroke="#E3E4EB" stroke-width="3"/>
<path d="M38.8476 63.9123L66.4487 80.5898" stroke="#E3E4EB" stroke-width="3"/>
<path d="M13.4271 111.808L65.8773 17.051C66.0676 16.7071 66.5444 16.7004 66.7318 17.0389L119.182 111.796C119.369 112.134 119.125 112.561 118.745 112.561L13.8443 112.561C13.4696 112.561 13.2398 112.146 13.4271 111.808Z" stroke="#E3E4EB" stroke-width="3"/>
<path d="M66.321 111.41L66.495 144.451" stroke="#E3E4EB" stroke-width="3"/>
<path d="M15.5128 112.396L117.022 112.396C118.164 112.396 118.896 113.678 118.334 114.693L67.5794 206.387C67.0172 207.402 65.5871 207.382 65.016 206.35L14.2613 114.657C13.6993 113.641 14.3887 112.396 15.5128 112.396Z" stroke="#E3E4EB" stroke-width="3"/>
<path d="M93.795 161.045L66.4314 144.566" stroke="#E3E4EB" stroke-width="3"/>
<path d="M119.186 113.18L66.7349 207.937C66.5475 208.276 66.0794 208.273 65.8906 207.931L13.4399 113.174C13.251 112.833 13.4823 112.408 13.857 112.408L118.758 112.408C119.136 112.408 119.374 112.839 119.186 113.18Z" stroke="#E3E4EB" stroke-width="3"/>
<path d="M38.8474 161.046L66.4951 144.452" stroke="#E3E4EB" stroke-width="3"/>
</g>
<defs>
<clipPath id="clip0_2501_58409">
<rect width="240" height="225" fill="white"/>
</clipPath>
</defs>
</svg>
